<?xml version="1.0" encoding="UTF-8"?>
<svg id="Layer_2" data-name="Layer 2" xmlns="http://www.w3.org/2000/svg" viewBox="0 0 169.55 169.55">
  <defs>
    <style>
      .cls-1 {
        fill: #f4863b;
      }
    </style>
  </defs>
  <g id="Layer_1-2" data-name="Layer 1">
    <rect class="cls-1" x="20.77" y="20.77" width="128" height="128" transform="translate(42.77 -27.52) rotate(24.49)"/>
    <g>
      <path d="M5.31,126.77v-5.07c6.77-.6,8.36-1.57,8.36-8.45V55.76c0-7.01-1.59-7.85-8.36-8.45v-5.07H40.75v5.07c-6.77,.6-8.36,1.45-8.36,8.45v24.76l21.58-22.95c4.34-4.59,4.87-9.54-3.49-10.27v-5.07h28.99v5.07c-5.18,.6-7.09,1.93-13.01,8.09l-16.08,16.91,25.81,42.03c3.39,5.68,6.45,6.88,8.89,7.37v5.07H49.63v-5.07c5.61-.6,7.62-2.29,4.02-8.33l-16.71-26.69-4.55,4.71v21.86c0,6.88,1.59,7.85,8.36,8.45v5.07H5.31Z"/>
      <path d="M86.23,126.77v-5.07c6.77-.6,8.36-1.57,8.36-8.45V55.76c0-7.01-1.59-7.85-8.36-8.45v-5.07h28.67l28.14,50.24V55.76c0-7.01-1.48-7.85-8.36-8.45v-5.07h24.75v5.07c-6.77,.6-8.25,1.45-8.25,8.45V126.77h-11.32L102.74,60.22v53.02c0,6.88,1.69,7.85,8.46,8.45v5.07h-24.97Z"/>
    </g>
  </g>
</svg>